<!--?xml version="1.0" standalone="no"?-->
              <svg id="sw-js-blob-svg" viewBox="0 0 100 100" xmlns="http://www.w3.org/2000/svg" version="1.1">
                    <defs> 
                        <linearGradient id="sw-gradient" x1="0" x2="1" y1="1" y2="0">
                            <stop id="stop1" stop-color="rgba(81.499, 50.366, 141.659, 1)" offset="0%"></stop>
                            <stop id="stop2" stop-color="rgba(189.406, 189.554, 232.73, 1)" offset="100%"></stop>
                        </linearGradient>
                    </defs>
                <path fill="url(#sw-gradient)" d="M23.4,-31.2C30.6,-26.9,36.9,-20.5,40.4,-12.5C43.9,-4.4,44.6,5.1,42.2,14.1C39.8,23,34.3,31.3,26.7,36.1C19.1,40.9,9.6,42.2,0.7,41.3C-8.2,40.3,-16.5,37.1,-22.6,31.9C-28.7,26.6,-32.8,19.3,-36.5,11.1C-40.2,2.9,-43.7,-6.2,-41.3,-13.4C-38.9,-20.5,-30.7,-25.7,-22.8,-29.8C-15,-33.9,-7.5,-36.9,0.3,-37.4C8.1,-37.8,16.2,-35.6,23.4,-31.2Z" width="100%" height="100%" transform="translate(50 50)" stroke-width="0" style="transition: all 0.3s ease 0s;" stroke="url(#sw-gradient)"></path>
              </svg>